

<svg width="160" height="160" viewBox="0 0 160 160" xmlns="http://www.w3.org/2000/svg">
  <!-- Border -->
  <rect x="8" y="8" width="144" height="144" rx="8" ry="8"
    fill="transparent" stroke="#8DDCB2" stroke-width="8"/>

  <!-- Image icon -->
  <g transform="translate(32, 32) scale(6.0)" style="filter: brightness(0) invert(22.5%);">
    
  <path fill-rule="evenodd" d="M0 5a2 2 0 0 1 2-2h7.5a2 2 0 0 1 1.983 1.738l3.11-1.382A1 1 0 0 1 16 4.269v7.462a1 1 0 0 1-1.406.913l-3.111-1.382A2 2 0 0 1 9.5 13H2a2 2 0 0 1-2-2zm11.5 5.175 3.5 1.556V4.269l-3.5 1.556zM2 4a1 1 0 0 0-1 1v6a1 1 0 0 0 1 1h7.5a1 1 0 0 0 1-1V5a1 1 0 0 0-1-1z"/>

  </g>
</svg>