<svg width="99" height="29" viewBox="0 0 99 29" fill="none" xmlns="http://www.w3.org/2000/svg">
<path d="M14.0153 27.2634C14.0153 27.9763 13.4377 28.5604 12.7298 28.495C11.33 28.3657 9.95507 28.0257 8.65185 27.4844C6.95144 26.7781 5.40641 25.7429 4.10498 24.4378C2.80354 23.1328 1.77118 21.5835 1.06685 19.8783C0.362515 18.1732 0 16.3456 0 14.5C0 12.6544 0.362516 10.8268 1.06685 9.12168C1.77118 7.41654 2.80354 5.86721 4.10498 4.56216C5.40641 3.2571 6.95145 2.22187 8.65186 1.51558C9.95507 0.97427 11.33 0.634297 12.7298 0.505006C13.4377 0.439617 14.0153 1.0237 14.0153 1.73662V7.77652C10.3123 7.77653 7.3104 10.7868 7.3104 14.5C7.3104 18.2133 10.3122 21.2235 14.0151 21.2236L14.0153 7.77652C17.7183 7.77652 20.72 10.7868 20.72 14.5001C20.72 18.2133 17.7181 21.2235 14.0151 21.2236L14.0153 27.2634Z" fill="#251B9F"/>
<path d="M14.0002 21.22L14.0001 7.77997C17.7114 7.77997 20.72 10.7887 20.72 14.5001C20.72 18.2114 17.7115 21.2199 14.0002 21.22Z" fill="#251B9F"/>
<path d="M14.0001 21.2639L14 7.73608C17.7356 7.73608 20.7639 10.7644 20.7639 14.5C20.7639 18.2355 17.7357 21.2638 14.0001 21.2639Z" fill="#FF491B"/>
<path d="M90.9566 13.9336C90.9566 14.278 91.1452 14.5404 91.5223 14.7207C91.9159 14.8847 92.5308 15.0569 93.3671 15.2373C94.3182 15.4341 95.1135 15.6554 95.753 15.9014C96.3926 16.1474 96.9419 16.5409 97.401 17.0821C97.8766 17.6068 98.1144 18.3201 98.1144 19.222C98.1144 20.0255 97.8684 20.7224 97.3764 21.3128C96.9009 21.9031 96.2614 22.3541 95.4579 22.6656C94.6544 22.9608 93.7771 23.1084 92.826 23.1084C91.5305 23.1084 90.4155 22.8624 89.4808 22.3705C88.5625 21.8785 87.8819 21.1734 87.4392 20.2551L89.9481 18.9515C90.3909 20.0829 91.3501 20.6487 92.826 20.6487C93.4655 20.6487 94.0148 20.5257 94.474 20.2797C94.9331 20.0337 95.1627 19.6812 95.1627 19.222C95.1627 18.8285 94.9495 18.5415 94.5232 18.3611C94.1132 18.1643 93.4409 17.9512 92.5062 17.7216C91.5387 17.492 90.7516 17.2624 90.1449 17.0329C89.5382 16.8033 89.0134 16.4507 88.5707 15.9752C88.1279 15.4833 87.9065 14.8355 87.9065 14.032C87.9065 13.2449 88.1279 12.5644 88.5707 11.9905C89.0134 11.4001 89.6119 10.9492 90.3663 10.6376C91.1206 10.3261 91.9487 10.1703 92.8506 10.1703C93.9164 10.1703 94.8675 10.3916 95.7038 10.8344C96.5565 11.2771 97.2125 11.9085 97.6716 12.7284L95.1873 13.9828C94.7609 13.0645 93.982 12.6054 92.8506 12.6054C92.2766 12.6054 91.8175 12.7284 91.4731 12.9743C91.1288 13.2039 90.9566 13.5237 90.9566 13.9336Z" fill="#251B9F"/>
<path d="M81.18 10.1703C82.3607 10.1703 83.4184 10.4654 84.3531 11.0558C85.3042 11.6297 86.0421 12.4086 86.5668 13.3925C87.0915 14.3764 87.3539 15.4669 87.3539 16.6639C87.3539 17.0575 87.3211 17.4182 87.2555 17.7462H77.761C78.007 18.6153 78.4415 19.2958 79.0647 19.7878C79.6878 20.2633 80.4831 20.5011 81.4506 20.5011C82.0409 20.5011 82.6067 20.3699 83.1478 20.1075C83.7053 19.8452 84.1235 19.509 84.4023 19.099L86.739 20.4765C86.1651 21.3292 85.4189 21.9851 84.5006 22.4443C83.5988 22.887 82.5575 23.1084 81.3768 23.1084C80.065 23.1084 78.9007 22.8296 77.884 22.2721C76.8673 21.7145 76.0802 20.9438 75.5227 19.9599C74.9815 18.9761 74.711 17.8692 74.711 16.6393C74.711 15.4259 74.9815 14.3272 75.5227 13.3433C76.0802 12.3594 76.8509 11.5887 77.8348 11.0312C78.8187 10.4572 79.9338 10.1703 81.18 10.1703ZM84.5006 15.3603C84.3695 14.5732 84.0005 13.9582 83.3938 13.5155C82.8034 13.0563 82.0573 12.8268 81.1554 12.8268C80.5323 12.8268 79.9584 12.9415 79.4336 13.1711C78.9253 13.4007 78.5153 13.7123 78.2038 14.1058C77.8922 14.4994 77.7282 14.9175 77.7118 15.3603H84.5006Z" fill="#251B9F"/>
<path d="M73.0927 19.3205C73.0927 19.5829 73.1583 19.7715 73.2894 19.8862C73.4206 20.001 73.6256 20.0584 73.9044 20.0584C74.1176 20.0584 74.3717 20.0338 74.6669 19.9846V22.7887C74.0602 22.8871 73.4944 22.9363 72.9697 22.9363C72.0186 22.9363 71.2889 22.6903 70.7805 22.1984C70.2886 21.69 70.0426 20.7963 70.0426 19.5173V5.5707H73.0927V19.3205Z" fill="#251B9F"/>
<path d="M69.3156 20.403C68.7088 21.2394 67.9463 21.9035 67.028 22.3954C66.1097 22.8874 65.1176 23.1333 64.0518 23.1333C62.8875 23.1333 61.8052 22.8464 60.8049 22.2724C59.8211 21.6821 59.0339 20.895 58.4436 19.9111C57.8697 18.9108 57.5827 17.8285 57.5827 16.6643C57.5827 15.5 57.8697 14.4259 58.4436 13.4421C59.0339 12.4418 59.8211 11.6547 60.8049 11.0807C61.8052 10.4904 62.8875 10.1952 64.0518 10.1952C65.1012 10.1952 66.0851 10.4412 67.0034 10.9331C67.9217 11.4087 68.6842 12.0564 69.291 12.8763L66.782 14.5735C66.0113 13.6716 65.1012 13.2207 64.0518 13.2207C63.4286 13.2207 62.8547 13.3765 62.33 13.688C61.8052 13.9996 61.3871 14.4177 61.0755 14.9425C60.7639 15.4672 60.6082 16.0412 60.6082 16.6643C60.6082 17.2874 60.7639 17.8613 61.0755 18.3861C61.3871 18.9108 61.8052 19.329 62.33 19.6405C62.8547 19.9357 63.4286 20.0833 64.0518 20.0833C65.1012 20.0833 66.0113 19.6323 66.782 18.7304L69.3156 20.403Z" fill="#251B9F"/>
<path d="M57.6971 10.2441L57.4758 13.1219C57.3774 13.0891 57.2052 13.0727 56.9592 13.0727C55.9425 13.0727 55.098 13.3679 54.4257 13.9582C53.7698 14.5486 53.4418 15.3521 53.4418 16.3688V22.7886H50.3918V10.49H53.4418V12.5562C53.7206 11.9003 54.1962 11.3509 54.8685 10.9082C55.5408 10.4654 56.3525 10.2441 57.3036 10.2441H57.6971Z" fill="#251B9F"/>
<path d="M27.5312 14.2288C27.5312 12.6218 27.9248 11.1378 28.7119 9.77671C29.5154 8.41567 30.5977 7.34159 31.9587 6.55448C33.3198 5.75098 34.8038 5.34922 36.4108 5.34922C38.0506 5.34922 39.5675 5.77557 40.9613 6.62827C42.3551 7.46458 43.4292 8.57965 44.1835 9.97349L41.3548 11.4739C40.8629 10.6048 40.1742 9.90789 39.2887 9.38316C38.4032 8.84202 37.4439 8.57145 36.4108 8.57145C35.3941 8.57145 34.443 8.82562 33.5576 9.33396C32.6885 9.8423 31.9997 10.531 31.4914 11.4001C30.9831 12.2692 30.7289 13.2121 30.7289 14.2288C30.7289 15.2455 30.9831 16.1884 31.4914 17.0575C31.9997 17.9266 32.6885 18.6153 33.5576 19.1236C34.443 19.632 35.3941 19.8861 36.4108 19.8861C37.4767 19.8861 38.4442 19.6156 39.3133 19.0744C40.1988 18.5333 40.8875 17.8118 41.3794 16.9099L44.2081 18.4595C43.4538 19.8697 42.3797 21.0012 40.9859 21.8539C39.5921 22.6902 38.067 23.1084 36.4108 23.1084C34.8038 23.1084 33.3198 22.7148 31.9587 21.9277C30.5977 21.1242 29.5154 20.0419 28.7119 18.6809C27.9248 17.3198 27.5312 15.8358 27.5312 14.2288Z" fill="#251B9F"/>
<path d="M45.2752 22.7885V10.4899H48.3252V22.7885H45.2752Z" fill="#251B9F"/>
<path d="M49.0083 6.2361C49.0083 7.47107 48.0071 8.47221 46.7722 8.47221C45.5372 8.47221 44.536 7.47107 44.536 6.2361C44.536 5.00114 45.5372 4 46.7722 4C48.0071 4 49.0083 5.00114 49.0083 6.2361Z" fill="#251B9F"/>
</svg>
